PathFileType	4	(X/Y/Z)	D:\TRACE\v60_Jaco2_6-2-23\BothDRS_Motion3_2-v60.trc
DataRate	CameraRate	NumFrames	NumMarkers	Units	OrigDataRate	OrigDataStartFrame	OrigNumFrames
100.00	100.00	      24	9	mm	100.00	3501	      7000
Frame#	Time	front left toe			Front right toe			aft left toe			aft right toe			Arm			FL body			FR body			AL Body			AR Body			
		X1	Y1	Z1	X2	Y2	Z2	X3	Y3	Z3	X4	Y4	Z4	X5	Y5	Z5	X6	Y6	Z6	X7	Y7	Z7	X8	Y8	Z8	X9	Y9	Z9	

3501	35.000	-135.41660	7.63556	-310.34177	269.71866	131.43532	-299.71362	-78.44347	140.52782	333.22638	258.07269	18.77435	298.51108	87.56958	1084.59204	-655.71454	-18.03284	499.99374	-482.99811	140.13708	501.32053	-486.77823	10.90892	569.01892	458.38275	162.58054	561.38696	454.70331	
3502	35.010	-135.58791	7.66406	-309.96985	267.65216	138.78960	-301.32889	-82.80637	147.13000	331.82962	257.71802	17.71372	297.97000	86.41644	1085.72351	-654.07623	-19.70657	500.67236	-482.59320	138.73619	502.06592	-486.30991	10.62622	568.08295	459.17825	162.27562	560.98602	455.58160	
3503	35.020	-135.70908	7.75198	-309.64386	264.22879	143.46062	-303.07553	-87.36741	151.15645	330.86929	258.09769	18.30448	298.80991	85.24204	1086.94739	-652.50140	-20.77841	501.03500	-481.34833	137.01588	503.01321	-485.76953	10.58859	567.60193	459.95419	162.16913	560.59418	456.05859	
3504	35.030	-135.72563	8.06563	-309.53613	260.48074	145.18585	-304.28857	-91.51201	152.66214	329.99936	257.90225	18.03620	298.83017	84.05071	1088.02002	-651.07483	-22.30423	501.99716	-480.47952	135.40250	504.02643	-485.02942	10.65419	567.25116	460.82037	162.14711	560.08374	456.63986	
3505	35.040	-135.80197	8.34810	-309.23029	256.55420	143.48347	-304.51871	-95.35477	151.72585	329.85596	257.81366	17.81915	298.91394	82.56098	1089.31482	-649.58221	-23.65853	502.88644	-479.92197	134.35687	505.03421	-484.61453	10.57913	566.60126	461.73108	162.35268	559.60309	457.02560	
3506	35.050	-135.74567	8.88168	-309.09079	253.48047	140.19359	-303.98923	-99.37120	149.79485	330.81155	257.70810	17.63354	299.02231	81.02213	1090.32288	-648.20789	-24.94770	503.73508	-479.10300	132.88840	506.05563	-483.87259	10.70453	566.29651	462.51477	162.52193	559.42590	458.05026	
3507	35.060	-135.86958	9.08606	-308.90305	246.93826	134.95583	-304.67453	-102.66607	146.70309	331.02048	257.60516	17.37148	299.03027	78.71130	1091.35046	-646.62207	-26.15158	504.35010	-478.04431	131.90298	506.42416	-483.33633	10.57690	566.14441	463.49188	162.30101	559.12079	458.58197	
3508	35.070	-135.95032	9.11683	-308.67691	243.56787	130.01639	-304.25848	-105.32794	142.25398	331.85376	257.46811	17.03163	299.05807	76.40101	1092.07336	-645.11456	-27.36023	504.73059	-477.09912	130.67796	506.94623	-482.51361	10.61833	565.77826	464.51227	162.14810	558.79150	459.34653	
3509	35.080	-136.07999	9.28881	-308.50403	238.21626	123.08234	-305.19843	-108.66933	137.22003	332.57681	257.26141	16.75668	299.21625	74.68012	1092.56311	-643.79968	-28.55490	505.25165	-476.13956	129.60603	507.32816	-481.68820	10.69976	565.40247	465.45010	162.49818	558.43164	460.22589	
3510	35.090	-136.41017	9.57286	-308.28873	234.59604	115.68116	-305.25110	-112.49957	131.16733	332.92932	257.01520	16.50484	299.35123	73.38277	1092.96472	-642.68671	-29.64640	505.66101	-475.17090	128.35587	507.62735	-481.02615	11.08241	565.27112	466.45828	162.75081	558.04169	461.03299	
3511	35.100	-136.87531	9.88130	-307.98236	231.61089	108.23086	-304.94965	-116.75159	124.36948	333.58182	256.80832	16.24764	299.44000	72.31490	1093.19043	-641.50439	-31.00779	506.06897	-474.08243	127.28246	508.01559	-480.15219	11.12720	564.81036	467.52008	162.89233	557.71130	461.69940	
3512	35.110	-137.24452	10.03409	-307.59756	226.43843	99.48345	-305.26044	-120.20849	116.67866	334.42358	256.73627	15.96451	299.52451	71.31252	1093.21912	-640.22791	-32.22705	506.33463	-473.05255	125.76646	508.45651	-478.89532	11.59972	564.18561	468.54602	163.26729	557.14429	462.52917	
3513	35.120	-137.40944	10.05429	-307.38675	223.70790	91.10580	-304.81854	-123.22807	108.41462	335.56067	256.41068	15.45640	299.65891	70.48448	1093.41199	-638.87537	-33.20407	506.59167	-471.80005	124.55173	508.42020	-478.53116	11.44284	563.89655	469.55209	163.34496	556.44562	463.17148	
3514	35.130	-137.59694	10.20236	-307.20258	218.79361	81.80215	-305.08582	-125.39661	99.28548	336.51001	256.29156	15.05387	299.72568	69.62118	1094.02368	-637.52332	-34.49207	506.89578	-470.80255	123.28699	508.56128	-477.20184	11.83178	563.55463	470.59775	163.53931	556.15399	464.31711	
3515	35.140	-137.72606	10.46350	-307.07562	214.51663	72.27559	-305.20584	-127.33495	90.39832	337.59937	256.21698	14.71495	299.78226	68.84194	1094.59583	-636.10150	-35.55656	507.50577	-469.85718	122.36845	508.73138	-476.75150	11.92089	563.12036	471.72369	163.38771	555.59766	465.15112	
3516	35.150	-137.87700	10.78047	-306.96616	211.40842	62.75867	-304.20090	-129.04211	82.27631	338.38147	256.21286	14.55267	299.79446	68.22259	1095.20825	-634.54138	-36.70319	507.93124	-468.79178	121.28026	509.05453	-476.03403	11.97358	562.84900	472.66544	163.73109	555.03632	466.02493	
3517	35.160	-138.15207	11.05838	-306.86700	209.97743	53.68716	-302.81744	-130.63876	74.38877	339.59753	255.97214	14.43765	299.91196	67.70415	1095.89380	-633.10876	-38.00832	508.45267	-467.97861	120.10583	509.33929	-474.64447	12.18647	562.83478	473.66803	163.83348	554.64764	466.89313	
3518	35.170	-138.63831	11.40437	-306.61798	209.30490	45.48351	-301.16415	-132.41716	66.83082	340.89850	255.75328	14.28011	300.17752	67.73177	1096.27185	-631.51642	-39.03603	508.71063	-466.57065	118.99438	509.50644	-474.10059	12.33657	562.43945	474.98590	163.96794	554.09930	467.75150	
3519	35.180	-139.02496	11.61617	-306.37537	208.77693	37.60285	-299.83102	-132.67674	59.07555	342.58893	255.64113	14.17697	300.33936	67.88254	1096.50439	-630.50537	-40.13820	509.19250	-465.46878	117.87946	509.57230	-473.07410	12.47798	562.15796	476.02493	164.13402	553.58392	468.83954	
3520	35.190	-139.41663	11.92817	-306.04742	210.12451	30.98894	-297.60916	-132.61032	52.19282	344.56189	255.55659	13.92246	300.54709	68.42975	1096.71802	-628.91412	-41.39223	509.68277	-464.26498	116.28840	510.03217	-471.83035	12.46933	562.10144	477.11310	163.93797	553.25183	469.75711	
3521	35.200	-139.67917	12.26512	-305.82477	210.40881	24.83871	-295.66147	-131.77339	45.61077	346.80542	255.41685	13.58376	300.80930	68.84314	1097.01672	-627.82684	-42.57689	510.23657	-463.16425	116.31171	509.84592	-471.35437	12.38509	562.19440	478.35345	163.99133	552.96356	470.81226	
3522	35.210	-139.82016	12.45174	-305.62903	210.60713	19.07212	-293.71198	-131.18024	39.38809	348.86279	255.12041	13.29862	300.84094	69.28548	1097.21423	-626.30133	-43.42566	510.49686	-462.05258	114.82605	509.98547	-470.00729	12.29885	562.31116	479.35339	163.89575	552.83386	471.86243	
3523	35.220	-139.98129	12.50991	-305.29691	210.66811	18.34032	-295.72015	-130.89857	32.78352	350.86511	254.77861	12.99538	301.02081	69.04017	1097.49780	-625.31189	-43.99979	510.72101	-460.67889	113.92346	510.00668	-469.12817	12.29857	562.20825	480.67529	163.87514	552.66528	473.00861	
3524	35.230	-140.46484	12.88468	-304.96179	209.78580	15.02691	-295.36844	-130.64905	25.81345	352.24756	254.21959	12.66402	300.97873	68.95198	1097.69592	-623.92310	-45.07639	511.32452	-459.35974	112.75703	510.75949	-467.42096	12.29454	562.10938	481.99258	163.78873	552.48254	474.16666	
